<svg width="32" height="24" viewBox="0 0 32 24" fill="none" xmlns="http://www.w3.org/2000/svg">
<path d="M18.7773 0.0402222L16.5836 1.75091V5.05154L21.7157 10.405H22.2993L26.2037 8.5333V7.86915L17.9522 4.72953V4.08551L27.8541 6.29934H28.6591L32 2.77733L31.5975 1.93205H17.5698L18.7773 0.0402222Z" fill="#8E0000"/>
<path d="M16.6038 10.244C17.8435 9.82534 18.2205 8.62048 18.2541 8.07037L21.7358 12.5182L18.2541 10.244L19.844 14.9936L17.8918 12.5182V21.2326L16.6038 23.5471V10.244Z" fill="#8E0000"/>
<path d="M13.1881 0L15.3761 1.71069V5.01132L10.2574 10.3648H9.6753L5.78109 8.49308V7.82893L14.0111 4.68931V4.04528L4.13509 6.25912H3.33216L-1.90735e-06 2.73711L0.401463 1.89182H14.3925L13.1881 0Z" fill="#8E0000"/>
<path d="M15.3561 10.2038C14.1196 9.78518 13.7435 8.58032 13.7101 8.03021L10.2374 12.478L13.7101 10.2038L12.1243 14.9535L14.0714 12.478V21.1925L15.3561 23.5069V10.2038Z" fill="#8E0000"/>
</svg>
